<?xml version="1.0" encoding="utf-8"?>
<!-- Generator: Adobe Illustrator 19.0.0, SVG Export Plug-In . SVG Version: 6.00 Build 0)  -->
<svg version="1.1" id="图层_1" xmlns="http://www.w3.org/2000/svg" xmlns:xlink="http://www.w3.org/1999/xlink" x="0px" y="0px"
	 viewBox="-1123 2516.8 68.4 71.1" style="enable-background:new -1123 2516.8 68.4 71.1;" xml:space="preserve">
<style type="text/css">
	.st0{fill:#6A3906;}
</style>
<g id="XMLID_2086_">
	<g id="XMLID_2158_">
		<path id="XMLID_2160_" class="st0" d="M-1074.7,2566.2c1.2-1.4,3.4-0.9,7.3-5.2c-8.9,3.6-10.1,0-10.1-1.4c0-2,2.3-4.1,5.9-5
			c17.4-4.4,18.8-20.4,15.6-26c0,0,0.9,3.4-10.1,9.6c-6.8,3.9-14.8,5.2-23.5,10.1c-10.7,6-11.7,20.8-1.6,28.3
			c3.9,2.8,8.7,3.9,13.7,3c7.3-1.4,13.5-7.5,17.6-14.2c-4.1,3.2-7.3,5.5-11,5.9C-1074.8,2571.7-1076.4,2568.4-1074.7,2566.2z"/>
		<path id="XMLID_2159_" class="st0" d="M-1103.3,2571.6c-25.4-16.5-13.7-40.9-0.4-48.5c2-1.2,3.7-1.1,5.2-0.5l0,0
			c2.1,0.7,3.4,2.8,3.7,4.3c1.1,4.1-2.1,8.9,3.9,14.2c0,0-0.5-7.3,2.1-9.2c2.3-1.8,2.8-3.9,2.8-5.5c0-2.3-1.4-4.4-2.8-5.9
			c-3.6-3.4-10.1-5.3-17.2-1.2c-2.7,1.6-4.6,3-7.1,5.3c-8.5,8.4-11.4,20.3-9.2,30.9c3,14.4,17.1,26.8,33.4,32.5
			C-1088.9,2587.9-1091.4,2579.2-1103.3,2571.6z"/>
	</g>
</g>
</svg>
