<?xml version="1.0" encoding="utf-8"?>
<!-- Generator: Adobe Illustrator 19.0.0, SVG Export Plug-In . SVG Version: 6.00 Build 0)  -->
<svg version="1.1" id="图层_1" xmlns="http://www.w3.org/2000/svg" xmlns:xlink="http://www.w3.org/1999/xlink" x="0px" y="0px"
	 viewBox="-1123 2516.8 160 71.1" style="enable-background:new -1123 2516.8 160 71.1;" xml:space="preserve">
<style type="text/css">
	.st0{fill:#FACE9D;}
</style>
<g id="XMLID_2086_">
	<g id="XMLID_2158_">
		<path id="XMLID_2160_" class="st0" d="M-1074.7,2566.2c1.2-1.4,3.4-0.9,7.3-5.2c-8.9,3.6-10.1,0-10.1-1.4c0-2,2.3-4.1,5.9-5
			c17.4-4.4,18.8-20.4,15.6-26c0,0,0.9,3.4-10.1,9.6c-6.8,3.9-14.8,5.2-23.5,10.1c-10.7,6-11.7,20.8-1.6,28.3
			c3.9,2.8,8.7,3.9,13.7,3c7.3-1.4,13.5-7.5,17.6-14.2c-4.1,3.2-7.3,5.5-11,5.9C-1074.8,2571.7-1076.4,2568.4-1074.7,2566.2z"/>
		<path id="XMLID_2159_" class="st0" d="M-1103.3,2571.6c-25.4-16.5-13.7-40.9-0.4-48.5c2-1.2,3.7-1.1,5.2-0.5l0,0
			c2.1,0.7,3.4,2.8,3.7,4.3c1.1,4.1-2.1,8.9,3.9,14.2c0,0-0.5-7.3,2.1-9.2c2.3-1.8,2.8-3.9,2.8-5.5c0-2.3-1.4-4.4-2.8-5.9
			c-3.6-3.4-10.1-5.3-17.2-1.2c-2.7,1.6-4.6,3-7.1,5.3c-8.5,8.4-11.4,20.3-9.2,30.9c3,14.4,17.1,26.8,33.4,32.5
			C-1088.9,2587.9-1091.4,2579.2-1103.3,2571.6z"/>
	</g>
	<g id="XMLID_2125_">
		<g id="XMLID_2146_">
			<path id="XMLID_2157_" class="st0" d="M-1026.1,2557.3c0.4,0,0.5,0.2,0.7,0.5c0.2,0.4,0.2,1.1,0.2,2v16.9c0,3.4,2.7,3.4,2.7,3.4
				h0.2v-24.2l-4.3,1.4H-1026.1z"/>
			<path id="XMLID_2156_" class="st0" d="M-967.1,2564.8c0.4,0,0.5,0.2,0.7,0.5c0.2,0.4,0.2,1.1,0.2,2v9.4c0,3.4,2.7,3.4,2.7,3.4
				h0.2v-16.5l-4.3,1.2H-967.1z"/>
			<ellipse id="XMLID_2155_" class="st0" cx="-965.1" cy="2559.8" rx="2.1" ry="2"/>
			<path id="XMLID_2154_" class="st0" d="M-1019.4,2564.8c0.4,0,0.5,0.2,0.7,0.5c0.2,0.4,0.2,1.1,0.2,2v9.4c0,3.4,2.7,3.4,2.7,3.4
				h0.2v-16.5l-4.3,1.2H-1019.4z"/>
			<ellipse id="XMLID_2153_" class="st0" cx="-1017.4" cy="2559.8" rx="2.1" ry="2"/>
			<path id="XMLID_2152_" class="st0" d="M-1005.7,2570.1c-0.7-0.4-1.4-0.7-2.1-0.9c-2-0.7-2.7-1.1-2.7-2.5c0-1.4,1.2-2.8,3.2-2.8
				c1.1,0,2.1,0.5,2.7,1.4c0.2,0.4,0.2,0.7,0,1.1c-0.4,0.4-0.5,0.9-0.5,1.2c0,1.2,1.1,1.6,1.8,1.6c0.4,0,0.7-0.2,1.1-0.4
				c0.2-0.5,0.2-1.6,0.2-1.6l0,0c0-0.9-0.4-2-1.2-2.7c-0.7-0.7-2-1.4-4.1-1.4c-2,0-3.6,0.7-4.4,2c-0.7,1.1-1.1,2.3-0.7,3.4
				c0.5,2.3,2.3,3.2,4.3,4.1c0.2,0.2,0.5,0.2,0.7,0.4c1.8,0.9,3.7,1.8,3.7,3.4c0,0.7-0.4,1.4-0.9,2s-1.4,0.7-2.7,0.7
				c-1.1,0-2.5-0.5-3-1.2c-0.2-0.4-0.2-0.7,0.2-1.1c0.2-0.2,0.5-0.7,0.5-1.2c0-0.9-0.9-1.8-1.8-1.8c-0.9,0-1.8,0.7-1.8,1.8v0.2l0,0
				c0,0.4,0.5,4.1,6,4.1c2.8,0,4.4-1.1,5-2c0.7-1.1,1.1-2.3,0.7-3.6C-1002.1,2572.6-1003.4,2571.4-1005.7,2570.1z"/>
			<path id="XMLID_2149_" class="st0" d="M-990.6,2563.7c-0.5-0.4-1.2-0.9-3-0.9c-2.3,0-4.8,0.5-5.9,5c-1.2,4.6,0,7.6,0.4,8.5
				c0.4,0.9,0.9,1.8,1.6,2.3c0.9,0.7,2,1.2,3.4,1.2c0.2,0,0.2,0,0.4,0c1.6,0,2.8-0.9,3.4-2.3c0.5,2.3,2.7,2.3,2.7,2.3h0.2v-16.5
				l-2.3,0.7C-990.2,2564.1-990.4,2563.9-990.6,2563.7z M-991.3,2577.1c-0.5,1.2-1.2,1.8-2.5,1.8c-1.1,0-1.8-0.5-2.3-2
				c-0.5-1.2-0.7-3-0.7-5.7c0-2,0.4-3.9,0.9-5.2s1.4-2,2.3-2c0.9,0,1.4,0.2,2,1.2s0.7,3,0.7,6
				C-990.6,2574.4-990.7,2576-991.3,2577.1z"/>
			<path id="XMLID_2148_" class="st0" d="M-1029.3,2578.5h-9.4V2568h7.3c0.9,0,1.4-0.2,1.8-0.5c0.4-0.4,0.4-0.7,0.4-0.7v-0.2h-9.4
				v-8.4h8.7c0.9,0,1.4-0.2,1.8-0.5s0.4-0.7,0.4-0.7v-0.2h-10.8v-0.9l-4.3,1.4h0.5c0.4,0,0.5,0.2,0.7,0.5c0.2,0.4,0.2,1.1,0.2,2
				v16.9c0,2.8,1.8,3.2,2.5,3.4l0,0h0.2h0.2h11.6v-0.2c0,0,0-0.4-0.4-0.7C-1027.9,2578.7-1028.6,2578.5-1029.3,2578.5z"/>
			<path id="XMLID_2147_" class="st0" d="M-968.5,2578.5h-8v-22.6l-4.3,1.4h0.5c0.4,0,0.5,0.2,0.7,0.5c0.2,0.4,0.2,1.1,0.2,2v16.9
				c0,3.4,3.4,3.4,3.4,3.4h9.4v-0.2c0,0,0-0.4-0.4-0.7C-967.1,2578.7-967.6,2578.5-968.5,2578.5z"/>
		</g>
		<g id="XMLID_2126_">
			<path id="XMLID_2145_" class="st0" d="M-1004.6,2541.7c0.4,0,0.5,0.2,0.5,0.5c0.2,0.4,0.2,0.9,0.2,1.6v5.2c0,2.8,2.5,2.8,2.5,2.8
				v-11.4l-3.6,1.2C-1005,2541.7-1004.6,2541.7-1004.6,2541.7z"/>
			<path id="XMLID_2144_" class="st0" d="M-1039.1,2551.8c2.5,0,5.5-1.8,8.2-4.6c2.7,2.8,5.9,4.6,8.2,4.6c2,0,3.2-0.5,3.2-0.7
				l0.5-0.2h-0.5c-3.6-0.5-6.9-2.5-9.8-5.3c1.8-2.5,3-5.2,3.7-7.8c-0.5-0.2-1.6-0.5-2.1-1.4c-0.2,2.5-1.2,5.2-3,7.5
				c-1.6-2.1-2.7-4.3-3-6c-0.5,0-1.6-0.4-2.5-1.4c0.2,2.8,1.6,6.2,3.9,9.1c-2.8,3.2-6.4,5.2-10,5.3h-0.7l0.5,0.4
				C-1042.3,2551.1-1041.2,2551.8-1039.1,2551.8z"/>
			<path id="XMLID_2143_" class="st0" d="M-1014,2537.4c0,0,1.1,1.2,2.7,0.5c0.5-0.2,1.4-0.9,2-1.8v3.4h0.2c0,0,2.1,0,2.1-3.4v-0.7
				c0.5,0.4,1.1,0.9,1.6,1.1c1.2,0.9,2.5-0.9,2.5-0.9s-2.3-1.4-3.6-2.8h3.9v-0.2c0,0,0-0.4-0.4-0.7c-0.4-0.4-0.9-0.5-1.8-0.5h-2.3
				c0-0.5,0-1.2,0-1.8c1.8-0.4,3.2-0.9,3.2-0.9h0.2c0,0-0.2-1.1-1.4-1.1c-0.2,0-0.5,0.2-0.7,0.2c-1.1,0.7-2.8,1.2-6.9,1.4h-0.9v0.2
				c0,1.1,1.1,1.2,1.6,1.2l0,0c1.1,0,1.8-0.2,2.7-0.4v1.4h-4.4v0.2c0,0,0,0.4,0.4,0.7c0.4,0.4,0.9,0.5,1.8,0.5h2
				C-1012.1,2536-1014,2537.4-1014,2537.4z"/>
			<path id="XMLID_2142_" class="st0" d="M-1003.2,2534.8c0,0,2,0.5,2.8-0.5c0.5-0.7,1.4-2.3,1.4-2.3h1.8c-2.3,5.2-3.4,5.7-3.4,5.7
				l0.2,0.2c0,0,0.5,0.4,1.1,0.4c0.7,0.2,1.4-0.2,2-0.7c0.9-0.9,2.7-5.7,2.7-5.7h1.1c0.5,0,0.5,0.4,0.4,0.7c-0.2,0.7-2,5.9-2,6
				c0,0.4,0.2,0.9,0.4,1.1c0.4,0.4,0.9,0.7,1.8,0.7h-0.2c0-0.2,2.1-7.5,2.3-8.2c0-0.4,0-0.7,0-0.9c0-0.2-0.2-0.4-0.4-0.5l-0.2-0.2
				l0,0l0,0c-0.2,0-0.2-0.2-0.4-0.2c-0.4-0.2-0.7-0.2-1.2-0.2h-5.3c0.7-0.9,1.6-2.1,1.6-2.1h-0.7c0,0-1.6,0-2.3,0.9
				C-1000,2529.1-1003.2,2534.8-1003.2,2534.8z"/>
			<path id="XMLID_2141_" class="st0" d="M-1011.4,2551.3c0,0,0.5,0.2,1.1,0.2l0,0c0.9,0,1.6-0.4,2-0.7c0.4-0.5,0.5-0.7,0.9-1.1
				c0.4-0.5,0.9-1.1,1.8-2.1c0.2-0.2,0.2-0.4,0.2-0.7s-0.2-0.5-0.2-0.5l-1.4-2.8l-2,0.9l1.4,2.3l-3.9,4.6H-1011.4z"/>
			<path id="XMLID_2140_" class="st0" d="M-1010.8,2543.6c1.1-0.4,4.4-1.4,8.2-4.4c0.5-0.5,0.9-0.5,1.2-0.5c0.2,0,0.4,0,0.5,0
				c-0.5-0.4-0.9-0.7-1.4-1.2c-0.2-0.2-0.4-0.2-0.5-0.2s-0.5,0.2-0.5,0.2c-4.8,3.6-11,5.5-11,5.5s0.4,0.7,1.8,1.1
				C-1011.9,2544-1011.5,2543.8-1010.8,2543.6z"/>
			<path id="XMLID_2139_" class="st0" d="M-1000,2539.2c-0.2-0.2-0.5-0.2-1.2-0.2c-0.5,0.2-1.2,0.5-1.2,0.5l0.2,0.2
				c3.7,2.8,7.3,3.9,8.2,4.1c0.5,0.2,0.7,0.2,1.1,0.2c1.4,0,2.5-0.9,2.5-0.9l-0.5-0.2C-991.4,2542.9-996.1,2541.5-1000,2539.2z"/>
			<path id="XMLID_2138_" class="st0" d="M-998,2549.5c0.4,0.4,0.5,0.7,0.9,1.1c0.4,0.5,1.1,0.7,2,0.7l0,0c0.5,0,1.1-0.2,1.1-0.2
				h0.4l-3.9-4.6l1.4-2.3l-2.1-0.7l-1.6,2.5l0,0c0,0.2-0.2,0.4-0.2,0.5c0,0.4,0,0.5,0.2,0.7C-998.9,2548.4-998.6,2549.2-998,2549.5z
				"/>
			<path id="XMLID_2137_" class="st0" d="M-980.1,2542.9c1.1,0.2,1.8,1.1,1.8,1.1s-0.2-1.6-2.3-2.1c-0.9-0.2-2-0.2-2.5,0.4
				c-0.5,0.4-0.9,0.9-1.1,1.4c-0.4,0.5-0.5,2.5-0.9,3.9c-0.4,1.6-0.7,2.5-1.6,3.7l-0.2,0.2h0.2c0,0,0.4,0.2,0.9,0.2l0,0
				c0.7,0,1.2-0.2,1.6-0.7c0.7-0.9,0.9-2,1.2-3.6c0.2-1.1,0.5-2.5,0.9-3.4C-981.8,2543.1-981,2542.8-980.1,2542.9z"/>
			<path id="XMLID_2136_" class="st0" d="M-969.7,2542c-1.2,0.5-1.4,1.8-1.4,2l-0.2,0.7l0.5-0.5c0,0,0.5-0.5,1.1-0.7
				c1.1-0.4,1.8,0.4,2,1.1c0.2,0.5,0.4,1.2,0.5,2c0.4,1.6,0.7,3.4,1.6,4.3c0.4,0.4,1.1,0.5,1.4,0.5c0.5,0,0.9-0.2,0.9-0.2l0.2-0.2
				l-0.2-0.2c-1.1-1.6-1.4-3.4-2-4.8c-0.2-0.9-0.5-1.8-0.9-2.3C-966.5,2542.4-968,2541.3-969.7,2542z"/>
			<path id="XMLID_2135_" class="st0" d="M-977.9,2541.7l-0.2,0.2l0.2,0.2c0.9,0.9,1.4,2,2.3,3.4c0.2,0.2,0.2,0.4,0.4,0.7
				c0.4,0.5,0.7,0.7,1.4,0.7h0.2c0.5,0,1.1-0.2,1.1-0.2h0.2l-0.2-0.2c-1.6-2.8-2-3.4-2.8-4.3C-976,2541-977.7,2541.7-977.9,2541.7z"
				/>
			<path id="XMLID_2134_" class="st0" d="M-980.2,2545.4v4.3c0,1.1,0,2.1,2,2.1h7.3c1.6,0,2.3-0.7,2.3-2.1v-3c0,0,0-1.4,0.2-2.1
				c0,0-0.4-0.9-1.2-0.5c-0.7,0.2-1.2,1.2-1.2,2v3.7c0,0.4-0.2,0.5-0.5,0.5h-5.7c-0.7,0-0.7-0.4-0.7-0.7v-3.9c0-0.9-0.5-1.8-1.4-2.1
				c-1.2-0.5-2.3,0.2-2.3,0.2S-980.2,2543.6-980.2,2545.4z"/>
			<path id="XMLID_2128_" class="st0" d="M-982.4,2539.6h14.9c1.6,0,2.3-0.7,2.3-2v-7.1c0-1.4-0.4-2.7-2.3-2.7h-14.9
				c-2.1,0-2.3,1.6-2.3,2.5v7.3C-984.7,2538.7-983.8,2539.6-982.4,2539.6z M-973.7,2529.4h5.3c0.5,0,0.7,0.2,0.7,0.7v3h-6V2529.4z
				 M-973.7,2534.4h6v3c0,0.5-0.2,0.7-0.7,0.7h-5.3V2534.4z M-982.2,2530.1c0-0.5,0.2-0.7,0.7-0.7h5.3v3.7h-6V2530.1z
				 M-982.2,2534.4h6v3.7h-5.3c-0.5,0-0.7-0.2-0.7-0.7V2534.4z"/>
			<path id="XMLID_2127_" class="st0" d="M-1040.3,2532.8h3.9v0.5c0,2.8,2.5,2.8,2.5,2.8v-3.4h5.9v0.5c0,2.8,2.5,2.8,2.5,2.8v-3.4
				h1.8l0,0l0,0h4.3v-0.2c0,0,0-0.4-0.4-0.7c-0.4-0.4-0.9-0.5-1.8-0.5h-4.1v-3.6l-3.6,1.2h0.5c0.4,0,0.5,0.2,0.5,0.5
				c0.2,0.4,0.2,0.9,0.2,1.6v0.2h-5.9v-3.6l-3.6,1.2h0.5c0.4,0,0.5,0.2,0.5,0.5c0.2,0.4,0.2,0.9,0.2,1.6v0.2h-1.8l0,0l0,0h-4.3v0.2
				c0,0,0,0.4,0.4,0.7C-1041.8,2532.6-1041.2,2532.8-1040.3,2532.8z"/>
		</g>
	</g>
</g>
</svg>
