<?xml version="1.0" encoding="utf-8"?>
<!-- Generator: Adobe Illustrator 19.0.0, SVG Export Plug-In . SVG Version: 6.00 Build 0)  -->
<svg version="1.1" id="图层_1" xmlns="http://www.w3.org/2000/svg" xmlns:xlink="http://www.w3.org/1999/xlink" x="0px" y="0px"
	 viewBox="0 0 956.3 422.9" style="enable-background:new 0 0 956.3 422.9;" xml:space="preserve">
<style type="text/css">
	.st0{fill:#F2C898;}
</style>
<g id="XMLID_2_">
	<path id="XMLID_8_" class="st0" d="M523.3,270.7c0-73.5-70.2-133.1-156.9-133.1s-156.9,59.6-156.9,133.1
		c0,73.5,70.2,133.1,156.9,133.1c19.2,0,37.7-2.9,54.7-8.3l51.3,27.4L459.2,378C498,353.8,523.3,314.7,523.3,270.7z M318.6,248.7
		c-10.7,0-19.3-8.6-19.3-19.3s8.6-19.3,19.3-19.3c10.7,0,19.3,8.6,19.3,19.3S329.2,248.7,318.6,248.7z M419.3,248.7
		c-10.7,0-19.3-8.6-19.3-19.3s8.6-19.3,19.3-19.3s19.3,8.6,19.3,19.3S429.9,248.7,419.3,248.7z"/>
	<path id="XMLID_37_" class="st0" d="M187.6,0C84,0,0,69.6,0,155.5c0,51.4,30.2,97,76.6,125.3l-15.8,52.4l61.4-32
		c20.4,6.3,42.4,9.7,65.4,9.7c4.7,0,9.4-0.1,14.1-0.4c-4.4-12.9-6.8-26.6-6.8-40.7c0-80.4,76.8-145.6,171.5-145.6
		c1.7,0,3.3,0,4.9,0.1C353.9,53.4,278.3,0,187.6,0z M122.9,124.4c-13.5,0-24.4-10.9-24.4-24.4s10.9-24.4,24.4-24.4
		c13.5,0,24.4,10.9,24.4,24.4S136.4,124.4,122.9,124.4z M252,124.4c-13.5,0-24.4-10.9-24.4-24.4s10.9-24.4,24.4-24.4
		c13.5,0,24.4,10.9,24.4,24.4S265.4,124.4,252,124.4z"/>
</g>
<g id="XMLID_16_">
	<path id="XMLID_40_" class="st0" d="M731.4,235.5c2.9,3.1,23.7,26,44.6,39.8c35.6,23.5,48,14.8,51.7,11.5c0,0,6.4-5.2,12.3-11.7
		c5.3-5.8,10.4-14.2,10.4-14.2c7.3-10.8,19.6-14.9,31.7-7l68.9,53.6c6.3,7.4,7.1,20,2.2,29.2c0,0-5,12-11.7,22.4
		c-4.8,7.5-11.8,14.4-11.8,14.4c-13.2,11.4-20.7,14.4-32.3,15.2c0,0-114.1,15.2-219.2-107.3c0-0.1-0.1-0.1-0.2-0.2c0,0,0,0,0-0.1
		c0,0,0,0,0-0.1c-0.1-0.1-0.1-0.1-0.2-0.2C573,158.4,606.3,48.8,606.3,48.8c2.6-11.4,6.7-18.3,20-29.7c0,0,7.9-5.9,16-9.5
		c11.3-5,23.9-8.1,23.9-8.1c9.9-3.4,22.2-0.7,28.5,6.6l42.4,76.4c5.9,13.2-0.4,24.3-12.2,29.8c0,0-8.9,4-15.4,8.3
		c-7.3,4.9-13.4,10.4-13.4,10.4c-3.7,3.2-14.9,13.3,2.8,52.2C709.3,208,728.7,232.2,731.4,235.5z"/>
	<g id="XMLID_34_">
		<path id="XMLID_39_" class="st0" d="M912.1,207.3c-2.6,0-5.3-0.8-7.6-2.4c-6.1-4.2-7.6-12.6-3.4-18.7
			c11.4-16.4,17.4-35.7,17.4-55.8c0-54-43.9-97.9-97.9-97.9c-2.4,0-4.8,0.1-7.2,0.3c-7.5,0.4-13.8-5.1-14.3-12.4
			c-0.5-7.4,5-13.8,12.4-14.3c3-0.2,6-0.3,9.1-0.3c68.8,0,124.7,55.9,124.7,124.7c0,25.5-7.7,50.1-22.2,71
			C920.5,205.3,916.3,207.3,912.1,207.3z"/>
	</g>
	<g id="XMLID_18_">
		<path id="XMLID_31_" class="st0" d="M859.8,179.6c-3.2,0-6.3-1.1-8.9-3.4c-5.5-4.9-6-13.4-1.1-18.9c6.6-7.4,10.2-16.9,10.2-26.8
			c0-22.3-18.1-40.4-40.4-40.4c-3,0-6.1,0.3-9,1c-7.2,1.7-14.4-2.9-16-10.1c-1.6-7.2,2.9-14.4,10.1-16c4.9-1.1,9.9-1.7,14.9-1.7
			c37,0,67.2,30.1,67.2,67.2c0,16.5-6,32.3-17,44.6C867.1,178,863.5,179.6,859.8,179.6z"/>
	</g>
</g>
</svg>
