<?xml version="1.0" encoding="utf-8"?>
<!-- Generator: Adobe Illustrator 19.0.0, SVG Export Plug-In . SVG Version: 6.00 Build 0)  -->
<svg version="1.1" id="图层_1" xmlns="http://www.w3.org/2000/svg" xmlns:xlink="http://www.w3.org/1999/xlink" x="0px" y="0px"
	 viewBox="0 0 709 444" style="enable-background:new 0 0 709 444;" xml:space="preserve">
<style type="text/css">
	.st0{fill:#B3151D;}
	.st1{fill:#F8CC9B;}
	.st2{opacity:0.8;}
	.st3{fill-rule:evenodd;clip-rule:evenodd;fill:#B3151D;}
</style>
<g id="XMLID_641_">
	<path id="XMLID_138_" class="st0" d="M312.6,216.5h-55.3c-4.6,0-8.2-3.4-8.2-7.7v-75.4c0-4.3,3.6-7.7,8.2-7.7h60.6
		c4.6,0,8.2,3.4,8.2,7.7v35.9c0,0.8-0.5,1.3-1.3,1.3c-0.8,0-1.3-0.5-1.3-1.3v-35.9c0-2.9-2.5-5.1-5.6-5.1h-60.6
		c-3.1,0-5.6,2.2-5.6,5.1v75.4c0,2.9,2.5,5.1,5.6,5.1h55.3c0.8,0,1.3,0.5,1.3,1.3C313.9,216,313.4,216.5,312.6,216.5z"/>
</g>
<g id="XMLID_640_">
	<path id="XMLID_137_" class="st0" d="M297.1,203h-34.6c-0.8,0-1.3-0.5-1.3-1.3s0.5-1.3,1.3-1.3h34.6c0.8,0,1.3,0.5,1.3,1.3
		S297.9,203,297.1,203z"/>
</g>
<g id="XMLID_209_">
	<path id="XMLID_136_" class="st0" d="M287.1,195.4h-24.6c-0.8,0-1.3-0.5-1.3-1.3s0.5-1.3,1.3-1.3h24.6c0.8,0,1.3,0.5,1.3,1.3
		S287.9,195.4,287.1,195.4z"/>
</g>
<path id="XMLID_135_" class="st0" d="M338,183.7l-16.1,14.8c-0.4,0.3-0.8,0.4-1.2,0.4s-0.8-0.1-1.2-0.5l-6.4-6
	c-0.5-0.5-0.5-1.3,0-1.8s1.3-0.5,1.8,0l5.9,5.5l16-14.7c-3.4-4.9-9.1-8.2-15.6-8.2c-10.4,0-18.9,8.5-18.9,18.9s8.5,18.9,18.9,18.9
	s18.9-8.5,18.9-18.9C339.9,189,339.3,186.2,338,183.7z"/>
<path id="XMLID_133_" class="st0" d="M301.6,155.2h-8.2l8.5-13.9c0.4-0.7,0.1-1.4-0.4-1.8c-0.7-0.4-1.4-0.1-1.8,0.4l-9.2,15.2H284
	l-9.4-15.2c-0.4-0.7-1.2-0.8-1.8-0.4c-0.7,0.4-0.8,1.2-0.4,1.8l8.5,13.9h-8.2c-0.8,0-1.3,0.5-1.3,1.3s0.5,1.3,1.3,1.3h13.1v8.7
	h-11.7c-0.8,0-1.3,0.5-1.3,1.3s0.5,1.3,1.3,1.3h11.7v14c0,0.8,0.5,1.3,1.3,1.3c0.8,0,1.3-0.5,1.3-1.3v-14h11.7
	c0.8,0,1.3-0.5,1.3-1.3s-0.5-1.3-1.3-1.3h-11.7v-8.7h13.2c0.8,0,1.3-0.5,1.3-1.3S302.3,155.2,301.6,155.2z"/>
<g id="XMLID_128_">
	<g id="XMLID_129_">
		<path id="XMLID_757_" class="st0" d="M185.9,205.4"/>
		<path id="XMLID_144_" class="st0" d="M140.1,183.6c-4.9,0-9,4.3-9,9.2c0,6.4,9,13.1,9,13.1s9-6.8,9-13.1
			C149,187.8,145.1,183.6,140.1,183.6z M140.1,197.7c-2.6,0-4.6-2.1-4.6-4.6c0-2.6,2.1-4.6,4.6-4.6c2.6,0,4.6,2.1,4.6,4.6
			C144.7,195.7,142.6,197.7,140.1,197.7z"/>
		<g id="XMLID_130_">
			<path id="XMLID_134_" class="st0" d="M215.7,151.6l-13.8-3.9c-0.7-0.1-1.4,0.3-1.6,0.9c-0.1,0.7,0.3,1.4,0.9,1.6l13.4,3.8v58.7
				l-25.2-7.7v-28.7c0.4-0.4,0.5-0.9,0.4-1.4c-0.1-0.3-0.3-0.4-0.4-0.5v-14.5c3.6-3,13-11.7,13-19.9c0-7.9-6.5-15-14.4-15
				c-7.9,0-14.4,7-14.4,15c0,8.6,9.9,17.3,13.3,20.2v4l-4.3,1c-0.7,0.1-1.2,0.9-0.9,1.6c0.1,0.7,0.7,1,1.3,1c0.1,0,0.3,0,0.3,0
				l3.6-0.9v7.4l-3.6,0.9c-0.7,0.1-1.2,0.9-0.9,1.6c0.1,0.7,0.7,1,1.3,1c0.1,0,0.3,0,0.3,0l3-0.8v27.9l-30.4,7.9v-7.9l1.6-0.4
				c0.7-0.1,1.2-0.9,0.9-1.6c-0.1-0.7-0.9-1.2-1.6-0.9l-0.9,0.3v-27.7l1.4-0.4c0.7-0.1,1.2-0.9,0.9-1.6c-0.1-0.7-0.9-1.2-1.6-0.9
				l-0.9,0.3v-7.2l4-1c0.7-0.1,1.2-0.9,0.9-1.6c-0.3-0.7-0.9-1.2-1.6-0.9l-3.4,0.8V154l17.6-4.7c0.7-0.1,1-0.9,0.9-1.6
				c-0.1-0.7-0.9-1-1.6-0.9l-17.8,4.8c-0.1,0-0.4,0-0.5,0l-27.6-8.6c-0.7-0.3-1.4-0.1-2,0.4c-0.5,0.4-0.9,1-0.9,1.8V205
				c0,0.9,0.7,1.7,1.4,2l28.2,8.7c0.3,0.1,0.7,0.1,1,0.1s0.5,0,0.9-0.1l31.9-8.3c0.1,0,0.3,0,0.4,0l26.4,8.1c0.7,0.1,1.3,0,1.7-0.4
				c0.5-0.4,0.8-1,0.8-1.6v-59.6C217.4,152.7,216.6,151.8,215.7,151.6z M153.9,163.5c0,0.3-0.1,0.4,0,0.7l0,0v8.3l-0.4,0.1
				c-0.3,0.1-0.5,0.1-0.9,0.1c-0.8,0-1.3,0.5-1.3,1.3s0.7,1.3,1.3,1.3c0.4,0,0.9,0,1.3-0.1v27.7l-1.6,0.4c-0.7,0.1-1.2,0.9-0.9,1.6
				c0.1,0.7,0.7,1,1.3,1c0.1,0,0.3,0,0.3,0l0.9-0.3v7.2l-26.7-8.2v-58.8l26.7,8.3V163.5L153.9,163.5z M180.7,140.6
				c0-4.2,3.4-7.4,7.4-7.4c4.2,0,7.4,3.4,7.4,7.4c0,4.2-3.4,7.4-7.4,7.4C184,148,180.7,144.7,180.7,140.6z"/>
			<path id="XMLID_145_" class="st0" d="M173.2,177.8c-0.7,0.1-1.2,0.9-0.9,1.6c0.1,0.7,0.7,1,1.3,1c0.1,0,0.3,0,0.3,0l5.1-1.3
				c0.7-0.1,1.2-0.9,0.9-1.6c-0.1-0.7-0.9-1.2-1.6-0.9L173.2,177.8z"/>
			<path id="XMLID_146_" class="st0" d="M170.1,158.8l-5.1,1.3c-0.7,0.1-1.2,0.9-0.9,1.6c0.1,0.7,0.7,1,1.3,1c0.1,0,0.3,0,0.3,0
				l5.1-1.3c0.7-0.1,1.2-0.9,0.9-1.6C171.4,159.1,170.7,158.6,170.1,158.8z"/>
			<path id="XMLID_147_" class="st0" d="M182,195.4c-0.5,0.5-0.7,1.3-0.1,1.8c0.3,0.3,0.7,0.5,1,0.5s0.7-0.1,0.8-0.3
				c1.7-1.4,2.7-3.4,2.9-5.3c0.1-0.7-0.5-1.3-1.2-1.4c-0.8-0.1-1.3,0.5-1.4,1.2C183.9,193.2,183.1,194.5,182,195.4z"/>
			<path id="XMLID_148_" class="st0" d="M177.6,166.6l-5.1,1.3c-0.7,0.1-1.2,0.9-0.9,1.6c0.1,0.7,0.7,1,1.3,1c0.1,0,0.3,0,0.3,0
				l5.1-1.3c0.7-0.1,1.2-0.9,0.9-1.6C179,166.9,178.3,166.4,177.6,166.6z"/>
			<path id="XMLID_149_" class="st0" d="M191.9,173c0.1,0.1,0.4,0.1,0.7,0.1c0.5,0,0.9-0.3,1.2-0.7c0.5-1,0.9-2.2,0.9-3.4
				c0-1-0.3-2.1-0.8-2.9c-0.4-0.7-1.2-0.8-1.8-0.4c-0.7,0.4-0.8,1.2-0.4,1.8c0.3,0.4,0.4,0.9,0.4,1.6s-0.1,1.4-0.5,2.2
				C191,172,191.3,172.8,191.9,173z"/>
			<path id="XMLID_150_" class="st0" d="M181.6,157.3c-0.1-0.7-0.9-1.2-1.6-0.9l-5.1,1.3c-0.7,0.1-1.2,0.9-0.9,1.6
				c0.1,0.7,0.7,1,1.3,1c0.1,0,0.3,0,0.3,0l5.1-1.3C181.4,158.6,181.9,157.9,181.6,157.3z"/>
			<path id="XMLID_151_" class="st0" d="M183.3,186.5c-1-0.4-2.2-0.4-3.3-0.1l-2.5,0.7c-0.7,0.1-1.2,0.9-0.9,1.6
				c0.1,0.7,0.7,1,1.3,1c0.1,0,0.3,0,0.3,0l2.5-0.7c0.7-0.1,1.3-0.1,1.8,0c0.7,0.3,1.4-0.1,1.7-0.8
				C184.4,187.6,184,186.8,183.3,186.5z"/>
			<path id="XMLID_152_" class="st0" d="M161.5,172c0.1,0.7,0.7,1,1.3,1c0.1,0,0.3,0,0.3,0l5.1-1.3c0.7-0.1,1.2-0.9,0.9-1.6
				c-0.1-0.7-0.9-1.2-1.6-0.9l-5.1,1.3C161.7,170.5,161.3,171.3,161.5,172z"/>
			<path id="XMLID_153_" class="st0" d="M172.9,200.9c0.1,0,0.3,0,0.3,0l5.1-1.3c0.7-0.1,1.2-0.9,0.9-1.6c-0.1-0.7-0.9-1.2-1.6-0.9
				l-5.1,1.3c-0.7,0.1-1.2,0.9-0.9,1.6C171.9,200.5,172.4,200.9,172.9,200.9z"/>
			<path id="XMLID_154_" class="st0" d="M142.6,208.3c0.1,0,0.3,0,0.3,0l5.1-1.3c0.7-0.1,1.2-0.9,0.9-1.6c-0.1-0.7-0.9-1.2-1.6-0.9
				l-5.1,1.3c-0.7,0.1-1.2,0.9-0.9,1.6C141.6,207.9,142.1,208.3,142.6,208.3z"/>
			<path id="XMLID_155_" class="st0" d="M149,172.2c0.1,0,0.1,0,0.3,0c0.7-0.1,1.2-0.8,1-1.4c0-0.1,0-0.3,0-0.5c0-1,0.5-2.2,1.3-3.3
				c0.5-0.5,0.4-1.3-0.1-1.8s-1.3-0.4-1.8,0.1c-1.3,1.4-2,3.3-2,4.9c0,0.3,0,0.7,0.1,0.9C147.8,171.7,148.5,172.2,149,172.2z"/>
			<path id="XMLID_156_" class="st0" d="M174,189.3c-0.1-0.7-0.9-1.2-1.6-0.9l-5.1,1.2c-0.7,0.1-1.2,0.9-0.9,1.6
				c0.1,0.7,0.7,1,1.3,1c0.1,0,0.3,0,0.3,0l5.1-1.2C173.7,190.7,174.1,189.9,174,189.3z"/>
			<path id="XMLID_157_" class="st0" d="M159.5,186c-0.1,0.4-0.1,0.9-0.1,1.3c0,2,0.9,3.6,2.5,4.6c0.3,0.1,0.4,0.1,0.7,0.1
				c0.4,0,0.9-0.3,1.2-0.7c0.4-0.7,0.1-1.4-0.5-1.8c-0.8-0.4-1.2-1.3-1.2-2.3c0-0.3,0-0.5,0.1-0.8c0.1-0.7-0.3-1.4-1-1.6
				C160.4,184.9,159.7,185.4,159.5,186z"/>
			<path id="XMLID_158_" class="st0" d="M168.2,179.1l-2.7,0.7c-0.9,0.3-1.8,0.7-2.6,1.3c-0.5,0.4-0.7,1.3-0.3,1.8
				c0.3,0.4,0.7,0.5,1,0.5s0.5-0.1,0.8-0.3c0.5-0.4,1.2-0.7,1.7-0.8l2.7-0.7c0.7-0.1,1.2-0.9,0.9-1.6
				C169.5,179.3,168.9,178.9,168.2,179.1z"/>
			<path id="XMLID_159_" class="st0" d="M162.9,203.3c0.1,0,0.3,0,0.3,0l5.1-1.3c0.7-0.1,1.2-0.9,0.9-1.6c-0.3-0.7-0.9-1.2-1.6-0.9
				l-5.1,1.3c-0.7,0.1-1.2,0.9-0.9,1.6C161.7,202.9,162.3,203.3,162.9,203.3z"/>
		</g>
	</g>
</g>
<g id="XMLID_85_">
	<g id="XMLID_86_">
		<g id="XMLID_98_">
			<path id="XMLID_126_" class="st0" d="M62.1,144.8l0.1,0.4c0.1,0.3,1.3,4.3,4.8,7.4L79.5,136l-6.9-5.2L62.1,144.8z"/>
			<path id="XMLID_125_" class="st0" d="M80.8,137l-12.5,16.6c2.1,1.4,4.8,2.6,8.5,2.7h0.5l10.5-14L80.8,137z"/>
			<path id="XMLID_101_" class="st0" d="M60.9,146.3L60.9,146.3l-1,15.7c0,0.5,0.5,1,1,0.8l15.2-5.1
				C65.7,157.2,61.8,148.7,60.9,146.3z"/>
			<path id="XMLID_100_" class="st0" d="M90,131.2l-7.4-5.6c-2.2-1.6-5.2-1.2-6.9,1l-2.2,3L88.7,141l2.2-3
				C92.6,135.9,92.2,132.9,90,131.2z"/>
		</g>
		<g id="XMLID_87_">
			<path id="XMLID_97_" class="st0" d="M9.8,195c0.8,0,1.3-0.5,1.3-1.3v-3.3c0-0.8-0.5-1.3-1.3-1.3s-1.3,0.5-1.3,1.3v3.3
				C8.5,194.4,9.1,195,9.8,195z"/>
			<path id="XMLID_89_" class="st0" d="M9.8,185.3c0.8,0,1.3-0.5,1.3-1.3v-6.5c0-0.8-0.5-1.3-1.3-1.3s-1.3,0.5-1.3,1.3v6.5
				C8.5,184.8,9.1,185.3,9.8,185.3z"/>
			<path id="XMLID_88_" class="st0" d="M23.2,175v6.5c0,0.8,0.5,1.3,1.3,1.3s1.3-0.5,1.3-1.3V175c0-0.8-0.5-1.3-1.3-1.3
				S23.2,174.2,23.2,175z"/>
			<path id="XMLID_90_" class="st0" d="M70.5,192.2C70.7,192.2,70.7,192.2,70.5,192.2c0.8,0,1.3-0.5,1.4-1.2c0-0.3,0-0.5,0-0.7v-5.9
				c0-0.8-0.5-1.3-1.3-1.3c-0.8,0-1.3,0.5-1.3,1.3v5.9c0,0.1,0,0.4,0,0.5C69.3,191.5,69.9,192.2,70.5,192.2z"/>
			<path id="XMLID_91_" class="st0" d="M25.8,187.9c0-0.8-0.5-1.3-1.3-1.3s-1.3,0.5-1.3,1.3v1.3c0,2.1,0.7,4,2,5.6
				c0.3,0.3,0.7,0.5,1,0.5s0.5-0.1,0.8-0.3c0.5-0.4,0.7-1.3,0.3-1.8c-0.9-1.2-1.4-2.5-1.4-3.9L25.8,187.9L25.8,187.9z"/>
			<path id="XMLID_92_" class="st0" d="M18.7,165.8c1.7,0.5,3.1,1.7,3.9,3.4c0.3,0.5,0.7,0.8,1.2,0.8c0.1,0,0.4,0,0.5-0.1
				c0.7-0.3,0.9-1,0.7-1.7c-1-2.3-3.1-4.2-5.6-4.8c-0.7-0.1-1.4,0.3-1.6,0.9C17.6,164.9,18,165.5,18.7,165.8z"/>
			<path id="XMLID_93_" class="st0" d="M9.6,172.4C9.8,172.4,9.8,172.4,9.6,172.4c0.8,0,1.3-0.5,1.4-1.2c0.1-1.8,1-3.5,2.5-4.6
				c0.5-0.4,0.8-1.2,0.3-1.8c-0.4-0.5-1.2-0.8-1.8-0.3c-2.1,1.6-3.4,3.9-3.6,6.4C8.5,171.6,9,172.3,9.6,172.4z"/>
			<path id="XMLID_94_" class="st0" d="M56.5,197.8c0.3,0,0.7-0.1,0.9-0.3c0.5-0.5,0.7-1.3,0.1-1.8c-1-1.2-1.6-2.6-1.6-4.2v-1
				c0-0.8-0.5-1.3-1.3-1.3s-1.3,0.5-1.3,1.3v1c0,2.2,0.8,4.3,2.2,5.9C55.7,197.6,56.1,197.8,56.5,197.8z"/>
			<path id="XMLID_95_" class="st0" d="M42.8,170.7c0.5-0.5,0.7-1.3,0.1-1.8c-0.5-0.5-1.3-0.7-1.8-0.1c-2,1.7-3.1,4-3.1,6.6
				c0,0.8,0.5,1.3,1.3,1.3l0,0c0.8,0,1.3-0.5,1.3-1.3C40.6,173.6,41.4,171.9,42.8,170.7z"/>
			<path id="XMLID_96_" class="st0" d="M38,181.8v6.5c0,0.8,0.5,1.3,1.3,1.3s1.3-0.5,1.3-1.3v-6.5c0-0.8-0.5-1.3-1.3-1.3
				C38.5,180.5,38,181.1,38,181.8z"/>
			<path id="XMLID_106_" class="st0" d="M48.1,166.7c-0.7-0.1-1.3,0.4-1.4,1.2c-0.1,0.7,0.4,1.3,1.2,1.4c1.8,0.1,3.4,1.2,4.4,2.7
				c0.3,0.4,0.7,0.7,1,0.7s0.5-0.1,0.7-0.3c0.7-0.4,0.8-1.2,0.4-1.8C53.1,168.4,50.7,166.9,48.1,166.7z"/>
			<path id="XMLID_123_" class="st0" d="M53.2,177.5v6.5c0,0.8,0.5,1.3,1.3,1.3s1.3-0.5,1.3-1.3v-6.5c0-0.8-0.5-1.3-1.3-1.3
				S53.2,176.8,53.2,177.5z"/>
			<path id="XMLID_124_" class="st0" d="M70.7,179c0.8,0,1.3-0.5,1.3-1.3v-3.3c0-0.8-0.5-1.3-1.3-1.3c-0.8,0-1.3,0.5-1.3,1.3v3.3
				C69.3,178.5,70,179,70.7,179z"/>
			<path id="XMLID_127_" class="st0" d="M90.9,158.6L80,156c-0.7-0.1-1.4,0.3-1.6,0.9c-0.1,0.7,0.3,1.4,0.9,1.6l10.5,2.5v50.9
				L62,204.1v-3.8l0,0l0,0c2.5,0,4.9-1,6.8-2.7c0.5-0.5,0.5-1.3,0-1.8s-1.3-0.5-1.8,0c-1.3,1.3-3.1,2.1-4.9,2.1l0,0v-32
				c0-0.8-0.5-1.3-1.3-1.3s-1.3,0.5-1.3,1.3v38.5l-27.7,7.8v-13.9h0.1c2.5,0,4.8-1,6.5-3c0.5-0.5,0.4-1.3-0.1-1.8s-1.3-0.4-1.8,0.1
				c-1.2,1.3-2.9,2.1-4.6,2.1h-0.1v-35.4l26.3-9.5c0.7-0.3,1-1,0.8-1.7c-0.3-0.7-1-1-1.7-0.8l-27.4,9.9l-27.2-8.6
				c-0.7-0.1-1.3,0-1.8,0.4S0,151,0,151.7v52.8c0,0.9,0.7,1.7,1.4,2l28.2,8.7c0.3,0.1,0.7,0.1,0.9,0.1c0.3,0,0.7,0,0.9-0.1l29.4-8.3
				c0.1,0,0.3,0,0.4,0l28.7,8c0.7,0.1,1.3,0,1.7-0.4s0.8-1,0.8-1.6v-52C92.5,159.7,91.7,158.7,90.9,158.6z M29.2,211.9l-26.7-8.2
				v-51.6l26.7,8.5V211.9z"/>
		</g>
	</g>
</g>
<g id="XMLID_84_">
	<g id="XMLID_78_">
		<g id="XMLID_104_">
			<path id="XMLID_83_" class="st0" d="M46.5,72.8L24.9,50.1l-0.3-0.4c-4.9-5.5-7.8-12.6-7.8-20c0-7.9,3.1-15.3,8.7-20.9
				c5.5-5.6,13-8.7,20.9-8.7s15.3,3.1,20.9,8.7c5.6,5.5,8.7,13,8.7,20.9c0,7.5-2.9,14.7-7.9,20.2l-0.9,0.9L46.5,72.8z M27,48.6
				L27,48.6L46.4,69l20-21.2c4.6-4.9,7.2-11.6,7.2-18.3c0-7.3-2.9-14.2-7.9-19.1c-5.2-5.2-12-7.9-19.1-7.9c-7.3,0-14.2,2.9-19.1,7.9
				c-5.2,5.2-7.9,12-7.9,19.1c0,6.8,2.6,13.4,7.2,18.3l0.3,0.3L27,48.6z"/>
		</g>
		<g id="XMLID_81_">
			<path id="XMLID_82_" class="st0" d="M46.4,92.9C20.4,92.9,0,82.6,0,69.6c-0.1-7.7,7.1-14.7,19.6-19.1c0.7-0.3,1.4,0.1,1.7,0.8
				c0.3,0.7-0.1,1.4-0.8,1.7C9.3,56.8,2.6,63.1,2.6,69.6c0,11.4,19.6,20.7,43.8,20.7s43.8-9.2,43.8-20.7c0-6.4-6.4-12.5-17.2-16.4
				c-0.7-0.3-1-1-0.8-1.7c0.3-0.7,1-1,1.7-0.8c12,4.4,19,11.3,19,18.9C92.8,82.6,72.4,92.9,46.4,92.9z"/>
		</g>
		<path id="XMLID_645_" class="st0" d="M42.6,35.5c0.3,0.3,2,2.2,3.6,3.3c3,2,4,1.2,4.3,0.9c0,0,0.5-0.4,1-0.9
			c0.4-0.5,0.9-1.2,0.9-1.2c0.7-0.9,1.6-1.3,2.6-0.5l5.7,4.4c0.5,0.7,0.7,1.7,0.1,2.5c0,0-0.4,1-0.9,1.8c-0.4,0.7-1,1.2-1,1.2
			c-1,0.9-1.7,1.2-2.7,1.3c0,0-9.5,1.3-18.2-8.8l0,0l0,0l0,0l0,0c-8.7-10.1-6-19.3-6-19.3c0.3-0.9,0.5-1.6,1.7-2.5
			c0,0,0.7-0.5,1.3-0.8c0.9-0.4,2-0.7,2-0.7c0.8-0.3,1.8,0,2.3,0.5l3.5,6.4c0.5,1,0,2-1,2.5c0,0-0.8,0.4-1.3,0.7
			c-0.7,0.4-1.2,0.9-1.2,0.9c-0.3,0.3-1.3,1,0.3,4.3C40.8,33.3,42.3,35.2,42.6,35.5z"/>
		<g id="XMLID_644_">
			<path id="XMLID_80_" class="st0" d="M57.5,33c-0.1,0-0.4,0-0.5-0.1c-0.4-0.3-0.5-0.9-0.3-1.3c0.9-1.4,1.4-3,1.4-4.7
				c0-4.6-3.6-8.2-8.2-8.2c-0.3,0-0.4,0-0.7,0c-0.5,0-1-0.4-1-0.9s0.4-1,0.9-1c0.3,0,0.5,0,0.8,0c5.6,0,10.1,4.6,10.1,10.1
				c0,2.1-0.7,4.2-1.8,5.9C58.2,32.9,57.9,33,57.5,33z"/>
		</g>
		<g id="XMLID_643_">
			<path id="XMLID_79_" class="st0" d="M53.2,30.7c-0.3,0-0.5-0.1-0.7-0.3c-0.4-0.4-0.4-0.9-0.1-1.4c0.5-0.7,0.9-1.4,0.9-2.3
				c0-2-1.6-3.5-3.5-3.5c-0.3,0-0.5,0-0.8,0.1c-0.5,0.1-1-0.3-1.2-0.8c-0.1-0.5,0.3-1,0.8-1.2c0.4-0.1,0.8-0.1,1.2-0.1
				c3,0,5.5,2.5,5.5,5.5c0,1.3-0.5,2.6-1.4,3.6C53.8,30.7,53.5,30.7,53.2,30.7z"/>
		</g>
	</g>
</g>
<g id="XMLID_102_">
	<g id="XMLID_74_">
		<g id="XMLID_77_">
			<path id="XMLID_99_" class="st0" d="M216.4,1c-0.5-0.4-1.3-0.4-2-0.1l-27.3,12.6c-0.3,0.1-0.5,0.1-0.7,0l-31-12.4
				c-0.9-0.4-1.8-0.3-2.7,0.1l-27.8,12.9c-0.8,0.4-1.3,1-1.3,2V91c0,0.7,0.4,1.3,0.9,1.7c0.4,0.3,0.8,0.4,1.2,0.4
				c0.3,0,0.5,0,0.9-0.1l27.3-12.6c0.3-0.1,0.5-0.1,0.8,0l31,12.4c0.9,0.4,1.8,0.3,2.7-0.1l27.8-12.9c0.8-0.4,1.3-1,1.3-2v-75
				C217.3,2,216.9,1.4,216.4,1z M152.7,77.7l-26.5,12.2V16.2l27.3-12.6v59.2c-0.3-0.1-0.4-0.4-0.7-0.5c-0.5-0.5-1.3-0.7-1.8-0.1
				c-0.5,0.5-0.7,1.3-0.1,1.8c0.8,0.9,1.6,1.6,2.6,2.2v11.4C153.2,77.6,152.9,77.6,152.7,77.7z M156,77.9v-11
				c0.4,0.1,0.8,0.1,1.2,0.1c0,0,0,0,0.1,0c0.7,0,1.3-0.5,1.3-1.2c0-0.8-0.5-1.3-1.2-1.4c-0.5,0-0.9-0.1-1.3-0.3V4l29.5,11.8v57.8
				c-0.8-0.7-1.4-1.4-1.8-2.3c-0.3-0.7-1-0.9-1.7-0.7c-0.7,0.3-0.9,1-0.7,1.7c0.9,2,2.3,3.5,4.2,4.6v12.9L156,77.9z M214.7,77.4
				L188,89.8v-13c0,0,0-0.1,0.1-0.1c0.1-0.4,0.1-0.8-0.1-1V16h0.1l26.5-12.2L214.7,77.4L214.7,77.4z"/>
			<path id="XMLID_103_" class="st0" d="M134.6,58.1c-0.8,0-1.3,0.5-1.3,1.3v3.3c0,0.8,0.5,1.3,1.3,1.3s1.3-0.5,1.3-1.3v-3.3
				C135.9,58.8,135.4,58.1,134.6,58.1z"/>
			<path id="XMLID_105_" class="st0" d="M151.2,57.2v-6.4c0-0.8-0.5-1.3-1.3-1.3c-0.8,0-1.3,0.5-1.3,1.3v6.4c0,0.8,0.5,1.3,1.3,1.3
				C150.7,58.5,151.2,57.8,151.2,57.2z"/>
			<path id="XMLID_107_" class="st0" d="M181.7,45.2c-0.8,0-1.3,0.5-1.3,1.3v6.4c0,0.8,0.5,1.3,1.3,1.3c0.8,0,1.3-0.5,1.3-1.3v-6.4
				C183,45.7,182.4,45.2,181.7,45.2z"/>
			<path id="XMLID_108_" class="st0" d="M141,23.4c-2.5,0.4-4.7,1.8-6.1,3.9c-0.4,0.7-0.3,1.4,0.4,1.8c0.3,0.1,0.5,0.3,0.8,0.3
				c0.4,0,0.8-0.3,1-0.5c1-1.4,2.6-2.5,4.3-2.7c0.7-0.1,1.2-0.8,1-1.4C142.3,24,141.6,23.2,141,23.4z"/>
			<path id="XMLID_109_" class="st0" d="M193,77.1c0.1,0,0.4,0,0.5-0.1c2.2-0.9,4-2.6,5.2-4.8c0.4-0.7,0.1-1.4-0.5-1.7
				c-0.7-0.4-1.4-0.1-1.7,0.5c-0.9,1.7-2.2,2.9-3.9,3.6c-0.7,0.3-0.9,1-0.7,1.7C192.1,76.8,192.5,77.1,193,77.1z"/>
			<path id="XMLID_110_" class="st0" d="M149.9,33.1C149.9,33.1,150.1,33.1,149.9,33.1c0.8,0,1.3-0.7,1.3-1.4
				c-0.3-2.5-1.4-4.8-3.4-6.4c-0.5-0.4-1.4-0.4-1.8,0.1c-0.4,0.5-0.4,1.4,0.1,1.8c1.4,1.2,2.2,2.7,2.3,4.6
				C148.8,32.6,149.3,33.1,149.9,33.1z"/>
			<path id="XMLID_111_" class="st0" d="M149.9,36.8c-0.8,0-1.3,0.5-1.3,1.3v6.4c0,0.8,0.5,1.3,1.3,1.3c0.8,0,1.3-0.5,1.3-1.3v-6.4
				C151.2,37.4,150.7,36.8,149.9,36.8z"/>
			<path id="XMLID_112_" class="st0" d="M134.6,45.5c-0.8,0-1.3,0.5-1.3,1.3v6.4c0,0.8,0.5,1.3,1.3,1.3s1.3-0.5,1.3-1.3v-6.4
				C135.9,46,135.4,45.5,134.6,45.5z"/>
			<path id="XMLID_113_" class="st0" d="M134.6,32.7c-0.8,0-1.3,0.5-1.3,1.3v6.4c0,0.8,0.5,1.3,1.3,1.3s1.3-0.5,1.3-1.3V34
				C135.9,33.4,135.4,32.7,134.6,32.7z"/>
			<path id="XMLID_114_" class="st0" d="M198.6,66.7c0.8,0,1.3-0.5,1.3-1.3V59c0-0.8-0.5-1.3-1.3-1.3s-1.3,0.5-1.3,1.3v6.4
				C197.3,66,197.9,66.7,198.6,66.7z"/>
			<path id="XMLID_115_" class="st0" d="M183,65.5v-6.4c0-0.8-0.5-1.3-1.3-1.3c-0.8,0-1.3,0.5-1.3,1.3v6.4c0,0.8,0.5,1.3,1.3,1.3
				C182.5,66.8,183,66.2,183,65.5z"/>
			<path id="XMLID_116_" class="st0" d="M180.4,40.2c0,0.8,0.5,1.3,1.3,1.3c0.8,0,1.3-0.5,1.3-1.3v-3.8c0-1-0.1-2-0.5-2.9
				c-0.3-0.7-0.9-1-1.7-0.8c-0.7,0.3-1,0.9-0.8,1.7c0.3,0.7,0.4,1.4,0.4,2.1V40.2z"/>
			<path id="XMLID_117_" class="st0" d="M198.6,53.9c0.8,0,1.3-0.5,1.3-1.3v-6.4c0-0.8-0.5-1.3-1.3-1.3s-1.3,0.5-1.3,1.3v6.4
				C197.3,53.4,197.9,53.9,198.6,53.9z"/>
			<path id="XMLID_118_" class="st0" d="M165.7,56.9c-0.8,0-1.3,0.5-1.3,1.3c-0.1,1.8-0.8,3.5-2.2,4.7c-0.5,0.5-0.5,1.3-0.1,1.8
				c0.3,0.3,0.7,0.4,0.9,0.4c0.3,0,0.7-0.1,0.9-0.4c1.8-1.7,2.9-4,3-6.5C167,57.6,166.4,57.1,165.7,56.9z"/>
			<path id="XMLID_119_" class="st0" d="M165.7,44.3c-0.8,0-1.3,0.5-1.3,1.3V52c0,0.8,0.5,1.3,1.3,1.3c0.8,0,1.3-0.5,1.3-1.3v-6.4
				C167,44.8,166.4,44.3,165.7,44.3z"/>
			<path id="XMLID_120_" class="st0" d="M167,31.8c-0.7-0.3-1.4,0-1.7,0.7c-0.5,1.2-0.9,2.5-0.9,3.9v2.9c0,0.8,0.5,1.3,1.3,1.3
				c0.8,0,1.3-0.5,1.3-1.3v-2.9c0-1,0.3-2,0.7-2.7C167.9,32.9,167.6,32.1,167,31.8z"/>
			<path id="XMLID_121_" class="st0" d="M177.8,28.1c-1.2-0.5-2.5-0.8-3.8-0.8h-0.7c-0.9,0-1.8,0.1-2.7,0.4c-0.7,0.3-1,0.9-0.8,1.7
				c0.3,0.7,0.9,1,1.7,0.8c0.7-0.3,1.3-0.3,2-0.3h0.7c0.9,0,1.8,0.3,2.6,0.5c0.1,0.1,0.4,0.1,0.5,0.1c0.5,0,0.9-0.3,1.2-0.8
				C178.7,29.1,178.4,28.3,177.8,28.1z"/>
			<path id="XMLID_122_" class="st0" d="M198.6,41.2c0.8,0,1.3-0.5,1.3-1.3v-3.3c0-0.8-0.5-1.3-1.3-1.3s-1.3,0.5-1.3,1.3v3.3
				C197.3,40.5,197.9,41.2,198.6,41.2z"/>
		</g>
		<g id="XMLID_213_">
			<path id="XMLID_76_" class="st0" d="M134.7,77.5c-3.5,0-6.2-2.9-6.2-6.2s2.9-6.2,6.2-6.2c3.3,0,6.2,2.9,6.2,6.2
				S138.2,77.5,134.7,77.5z M134.7,67.5c-2.1,0-3.6,1.7-3.6,3.6s1.7,3.6,3.6,3.6c2.1,0,3.6-1.7,3.6-3.6S136.8,67.5,134.7,67.5z"/>
		</g>
		<path id="XMLID_75_" class="st0" d="M199.7,27.5c-0.3,0.3-0.7,0.4-1,0.4c-0.4,0-0.8-0.1-1-0.4l-2.9-2.6c-0.5-0.5-0.5-1.3,0-1.8
			s1.3-0.5,1.8,0l2.1,2l6.6-6.1c-1.6-1.8-3.9-3-6.5-3c-4.6,0-8.3,3.8-8.3,8.3s3.8,8.3,8.3,8.3s8.3-3.8,8.3-8.3c0-1-0.3-2.1-0.5-3
			L199.7,27.5z"/>
	</g>
</g>
<g id="XMLID_1_">
	<circle id="XMLID_73_" class="st0" cx="307.1" cy="64.8" r="2"/>
	<circle id="XMLID_70_" class="st0" cx="314.6" cy="63.8" r="2"/>
	<circle id="XMLID_64_" class="st0" cx="322.8" cy="62.6" r="2"/>
	<circle id="XMLID_56_" class="st0" cx="330.7" cy="61.6" r="2"/>
	<g id="XMLID_37_">
		<path class="st0" d="M311,91.7l-9.1-8.3c-0.5-0.5-0.5-1.3-0.1-1.8c0.5-0.5,1.3-0.5,1.8-0.1l8.2,7.5l8.7-0.5l-4.2-6.9
			c-0.4-0.7-0.1-1.4,0.4-1.8c0.7-0.4,1.4-0.1,1.8,0.4l6.4,10.5L311,91.7z"/>
	</g>
	<path class="st0" d="M343,62c-0.9-5.1-5.6-8.3-10.5-7.7l-28,3.9l-23.4-17.6c-0.4-0.3-0.8-0.4-1.2-0.3l-12.2,2c-0.7,0.1-1,0.5-1.3,1
		c-0.3,0.5-0.1,1.2,0.3,1.7l14.2,16.5l-12.7,2.1c-0.1,0-0.3,0-0.3,0l-9.8-6.4c-0.4-0.3-0.8-0.4-1.3-0.4l-7.3,2.2
		c-0.5,0.1-0.9,0.5-1.2,1c-0.3,0.5-0.1,1.2,0.3,1.7l9.2,12.6c-0.8,1.3-1.2,2.9-1.2,4.6c0,5.3,4.4,9.8,9.8,9.8c5.4,0,9.8-4.3,9.8-9.8
		l59.1-6c2.6-0.4,4.8-1.7,6.2-3.8C342.8,67,343.5,64.4,343,62z M339.2,67.6c-1,1.6-2.7,2.5-4.6,2.7l-59.1,6
		c-0.1-0.4-0.3-0.8-0.4-1.2l-8.2,7.5c-0.3,0.3-0.7,0.4-1,0.4c-0.4,0-0.8-0.1-1-0.4l-3.3-3.1c-0.5-0.5-0.5-1.3,0-1.8s1.3-0.5,1.8,0
		l2.6,2.5l7.8-7.3c-1.8-2.2-4.6-3.8-7.7-3.8c-2.7,0-5.2,1.2-7,3l-7.9-10.9l5.5-1.7l9.5,6.2c0.7,0.4,1.3,0.5,2.1,0.4l15.1-2.3
		c0,0,0,0,0.1,0s0.1,0,0.3-0.1c0,0,0.1,0,0.1-0.1c0,0,0,0,0.1,0c0,0,0-0.1,0.1-0.1c0-0.1,0.1-0.1,0.1-0.3c0-0.1,0.1-0.1,0.1-0.3
		c0-0.2,0-0.1,0-0.3s0-0.1,0-0.3v-0.1c0,0,0,0,0-0.1s0-0.1-0.1-0.3c0-0.1-0.1-0.1-0.1-0.3c0,0,0,0,0-0.1l-14.5-16.9l10.3-1.6
		l23.4,17.7c0,0,0.1,0,0.1,0.1c0.1,0,0.1,0.1,0.3,0.1c0.2,0,0.3,0,0.4,0c0,0,0,0,0.1,0l28.6-3.9c3.6-0.5,7,2,7.7,5.6
		C340.8,64.2,340.4,66.1,339.2,67.6z"/>
	<path class="st0" d="M327.2,18.1c-1.6,0-3.1,0.3-4.6,0.8C319,8.5,308.8,1.3,297.6,2c-9.6,0.5-18.1,6.6-21.7,15.6
		c-0.1,0.3-0.1,0.5,0,0.8c-5.3,2.7-9.1,7.7-9.6,13.4c-5.1-0.4-9.6,2.9-10.5,7.3c-0.4,2.2,0.1,4.4,1.4,6.2c1.6,2.1,3.9,3.5,6.8,3.9
		h0.1c0.7,0,1.2-0.5,1.3-1.2s-0.4-1.4-1-1.4c-2.1-0.3-3.9-1.3-4.9-2.9c-0.9-1.3-1.3-2.7-1-4.3c0.7-3.4,4.4-5.7,8.3-5.2
		c1.2,0.1,2.2,0.5,3.1,1.2c0.7,0.4,1.4,0.3,1.8-0.4c0.4-0.7,0.3-1.4-0.4-1.8c-0.8-0.5-1.6-0.8-2.3-1c0.7-7.3,7.4-13.1,15.9-13.7
		c7.9-0.4,15.1,4.2,17.3,10.8c0,0,0,0.1,0.1,0.1l0,0l0.1,0.1c0,0,0,0.1,0.1,0.1c0.4,0.4,0.9,0.7,1.6,0.4c1.2-0.5,2.3-0.8,3.5-0.8
		c4.4,0,7.9,3.1,7.9,6.9S312,43,307.6,43c-0.8,0-1.3,0.5-1.3,1.3s0.5,1.3,1.3,1.3c5.9,0,10.5-4.3,10.5-9.5s-4.7-9.5-10.5-9.5
		c-1.2,0-2.2,0.1-3.3,0.5c-3-7.2-10.7-11.8-19.5-11.4c-2,0.1-3.8,0.5-5.6,1c3.5-7.2,10.8-12,18.9-12.5c10.4-0.7,20,6.2,22.8,16.3
		c0,0.1,0.1,0.1,0.1,0.3c0,0,0,0,0,0.1c0.3,0.7,1,0.9,1.7,0.7c1.4-0.8,3.1-1,4.7-1c5.9,0,10.7,4.8,10.7,10.7s-5,10.6-10.9,10.6
		c-0.8,0-1.3,0.5-1.3,1.3s0.5,1.3,1.3,1.3c7.3,0,13.3-6,13.3-13.3S334.5,18.1,327.2,18.1z"/>
</g>
<g id="XMLID_2_">
	<path id="XMLID_36_" class="st1" d="M65.2,441.8H8.8c-0.6,0-1.1,0.5-1.1,1.1s0.5,1.1,1.1,1.1h56.5c0.6,0,1.1-0.5,1.1-1.1
		S65.8,441.8,65.2,441.8z"/>
	<path id="XMLID_61_" class="st1" d="M69.5,403.7h-9.4c-1.5-3.1-4.5-5.5-8.9-7.2c-0.2-0.1-0.5-0.2-0.7-0.2c6.6-3.5,1.8-7.3,6.6-9
		c5.8-2.1,4.5-5.5,4.5-5.5s-5-1.7-3.2-6.1c0.9-2.2,1-5.1-1.7-6.7c-3.2-2-2.4-4.1-2.9-6c-1.7-6.7-7.5-11.8-16.9-11.8
		c-8.1,0-14.8,3.2-17.3,12.3c-0.7,2.6-0.2,5.7-2.1,7.7c-1.6,1.7-4.6,7.3,0.5,10.5c4.3,2.7-3.5,10.7,4.2,15.5c0,0,0.1,0,0.4,0
		c-3.5,1.6-6,3.8-7.3,6.5H4.6c-1.2,0-2.4,0.4-3.2,1.2C0.5,405.7,0,406.8,0,408l5.4,28.1c0,2.3,2.1,4.3,4.6,4.3h54.1
		c2.5,0,4.6-1.9,4.6-4.1l5.4-28.4C74.1,405.6,72,403.7,69.5,403.7z M30.4,388c-1.6-1.1-3.6-4.2-4.2-5.3c-1.8-3.2-2.8-6.8-2.8-10.2
		c0-0.2,0-0.3,0-0.5c12.5,1.1,18.8-6.1,18.8-6.1s1.9,5.2,8.4,5.8c0,0.2,0,0.5,0,0.7c0,9.1-6.9,18.3-13.6,18.3
		C34.8,390.9,32.4,389.4,30.4,388z M35.1,392.9c0.7,0.2,1.3,0.3,2,0.3c0.9,0,1.7-0.1,2.6-0.4v4.5c-2.5,1.3-3.9,0.6-4.6,0.2V392.9z
		 M32.9,396.8v0.8c0,0.5,0.2,1,0.6,1.3c0.4,0.4,1.6,1.3,3.5,1.3c1.1,0,2.4-0.3,4-1.1c0.6-0.3,0.9-0.9,0.9-1.6v-0.8
		c1.9,0.2,12,1.3,15.7,7H18C21.4,398.6,29.8,397.1,32.9,396.8z M37,425.4c-1.1,0-1.9-0.9-1.9-1.9c0-1.1,0.9-1.9,1.9-1.9
		c1.1,0,1.9,0.9,1.9,1.9C39,424.5,38.1,425.4,37,425.4z"/>
	<path id="XMLID_66_" class="st1" d="M30.2,374c-0.8,0-1.4,0.6-1.4,1.4c0,0.8,0.6,1.4,1.4,1.4c0.8,0,1.4-0.6,1.4-1.4
		C31.6,374.6,31,374,30.2,374z"/>
	<path id="XMLID_67_" class="st1" d="M44.1,376.7c0.8,0,1.4-0.6,1.4-1.4c0-0.8-0.6-1.4-1.4-1.4c-0.8,0-1.4,0.6-1.4,1.4
		C42.7,376.1,43.3,376.7,44.1,376.7z"/>
	<path id="XMLID_68_" class="st1" d="M40.8,400c-3.9,2.1-6.6,0.2-6.7,0.1c-0.5-0.4-1.2-0.3-1.5,0.2c-0.4,0.5-0.3,1.2,0.2,1.5
		c0.1,0.1,1.8,1.3,4.5,1.3c1.3,0,2.9-0.3,4.6-1.3c0.5-0.3,0.7-1,0.4-1.5C42,399.9,41.3,399.7,40.8,400z"/>
</g>
<g id="XMLID_57_">
	<path id="XMLID_798_" class="st1" d="M134.1,434.7H93c-0.6,0-1.1-0.5-1.1-1.1v-58.4
		c0-0.6,0.5-1.1,1.1-1.1h60.9c0.6,0,1.1,0.5,1.1,1.1v34.4c0,1.7,1.4,3.1,3.1,3.1h0c1.7,0,3.1-1.4,3.1-3.1v-43.7
		c0-3.4-2.8-6.2-6.3-6.2l0,0h-4.7v2.4c0,3.4-2,6.2-5.5,6.2s-5.8-2.7-5.8-6.2v-2.4h-30.8v2.5c0,3.3-2.2,6.1-5.7,6.1
		c-3.5,0-5.8-2.7-5.8-6.1v-2.5H92c-3.5,0-6.3,2.8-6.3,6.2v68.6c0,3.4,2.8,6.2,6.3,6.2h42c1.7,0,3.1-1.4,3.1-3.1l0,0
		C137.1,436,135.7,434.7,134.1,434.7z"/>
	<path id="XMLID_58_" class="st1" d="M162.5,421.6l-11.6,10.7c-0.3,0.2-0.6,0.4-0.9,0.4c-0.3,0-0.7-0.1-1-0.4l-4.6-4.3
		c-0.4-0.4-0.5-1.1,0-1.6c0.4-0.4,1.1-0.5,1.6,0l4,3.8l11.4-10.5c-2.5-3.5-6.5-5.8-11.1-5.8c-7.5,0-13.6,6.1-13.6,13.6
		s6.1,13.6,13.6,13.6s13.6-6.1,13.6-13.6C163.8,425.4,163.3,423.4,162.5,421.6z"/>
	<path id="XMLID_965_" class="st1" d="M105.7,400.3c-4.7,0-8.5,3.8-8.5,8.5c0,2.7,1.7,5.4,3.1,7.3c1.9,2.7,4.1,4.9,4.8,5.5
		c0.2,0.2,0.5,0.3,0.7,0.3c0.3,0,0.5-0.1,0.7-0.3c0.6-0.6,2.8-2.8,4.8-5.5c1.3-1.9,3.1-4.6,3.1-7.3
		C114.3,404.1,110.4,400.3,105.7,400.3z M105.7,412.6c-2.1,0-3.8-1.7-3.8-3.8s1.7-3.8,3.8-3.8c2.1,0,3.8,1.7,3.8,3.8
		C109.5,410.9,107.8,412.6,105.7,412.6z"/>
	<path id="XMLID_962_" class="st1" d="M143.9,381.4c-3.5,0-6.3,2.8-6.3,6.3c0,2,1.3,4,2.3,5.4c1.4,2,3,3.6,3.5,4.1
		c0.2,0.1,0.4,0.2,0.6,0.2c0.2,0,0.4-0.1,0.6-0.2c0.5-0.4,2.1-2.1,3.5-4.1c1-1.4,2.3-3.4,2.3-5.4
		C150.2,384.3,147.4,381.4,143.9,381.4z M143.9,390.6c-1.5,0-2.8-1.3-2.8-2.8c0-1.5,1.3-2.8,2.8-2.8c1.5,0,2.8,1.3,2.8,2.8
		C146.7,389.3,145.4,390.6,143.9,390.6z"/>
	<g id="XMLID_884_">
		<path id="XMLID_71_" class="st1" d="M107.8,425.9c-1.3,0-2.2-0.1-2.2-0.1c-0.6-0.1-1-0.7-0.9-1.3c0.1-0.6,0.7-1,1.3-0.9l0,0
			c0,0,0.7,0.1,1.9,0.1c0.7,0,1.5,0,2.2-0.1c0.6-0.1,1.2,0.4,1.2,1c0.1,0.6-0.4,1.2-1,1.2C109.5,425.9,108.6,425.9,107.8,425.9z
			 M114.4,424.8c-0.4,0-0.9-0.3-1-0.7c-0.2-0.6,0.1-1.2,0.7-1.4c1.3-0.5,2.5-1.1,3.7-1.9c0.5-0.3,1.2-0.2,1.5,0.3
			c0.4,0.5,0.2,1.2-0.3,1.5c-1.3,0.9-2.7,1.6-4.2,2.2C114.7,424.7,114.6,424.8,114.4,424.8z M121.6,419.8c-0.3,0-0.5-0.1-0.7-0.3
			c-0.5-0.4-0.5-1.1-0.1-1.6c0.9-1,1.7-2.2,2.3-3.5c0.3-0.5,1-0.7,1.5-0.5c0.5,0.3,0.7,1,0.5,1.5c-0.8,1.4-1.6,2.7-2.6,3.9
			C122.2,419.6,121.9,419.8,121.6,419.8z M126,412.1c-0.2,0-0.4,0-0.5-0.1c-0.5-0.3-0.7-1-0.4-1.5c0.8-1.4,1.6-2.7,2.6-3.8
			c0.4-0.5,1.1-0.5,1.6-0.1c0.5,0.4,0.5,1.1,0.1,1.6c-0.9,1-1.7,2.2-2.3,3.5C126.8,411.9,126.4,412.1,126,412.1z M131.7,405.4
			c-0.3,0-0.7-0.2-0.9-0.5c-0.4-0.5-0.3-1.2,0.2-1.5c1.3-0.9,2.6-1.7,4.1-2.3c0.6-0.2,1.2,0,1.4,0.6s0,1.2-0.6,1.4
			c-1.3,0.5-2.5,1.2-3.6,2C132.1,405.4,131.9,405.4,131.7,405.4z M139.8,402.1c-0.5,0-1-0.4-1.1-0.9c-0.1-0.6,0.3-1.2,0.9-1.3
			c1.4-0.2,2.5-0.3,3.2-0.3c0.8,0,1.2,0.1,1.2,0.1c0.6,0.1,1,0.6,1,1.2c-0.1,0.6-0.6,1-1.2,1c-0.1,0-1.5-0.2-3.8,0.2
			C139.9,402.1,139.8,402.1,139.8,402.1z"/>
	</g>
	<g id="XMLID_801_">
		<path id="XMLID_160_" class="st1" d="M144.5,365.7c-1.5,0-2.8-1.2-2.8-2.8v-8.8c0-1.5,1.2-2.8,2.8-2.8s2.8,1.2,2.8,2.8v8.8
			C147.3,364.4,146.1,365.7,144.5,365.7z"/>
	</g>
	<g id="XMLID_797_">
		<path id="XMLID_161_" class="st1" d="M102.3,365.7c-1.5,0-2.8-1.2-2.8-2.8v-8.8c0-1.5,1.2-2.8,2.8-2.8c1.5,0,2.8,1.2,2.8,2.8v8.8
			C105.1,364.4,103.8,365.7,102.3,365.7z"/>
	</g>
</g>
<g id="XMLID_69_">
	<path id="XMLID_1084_" class="st1" d="M253.6,420.7c-0.9-2-3-3-4.7-2.2l-16.6,5.3c1.2,3.2,0.1,6.7-2.5,8c-1.6,0.8-3.5,0.5-5-0.5
		l-14.5-7.7c-0.6-0.3-0.9-1.1-0.7-1.7c0.2-0.6,0.8-0.9,1.4-0.6l4.2,2.2l6.6,3.5l4.2,2.2c1.8,0.9,3.8-0.1,4.4-2.1
		c0.3-0.9,0.2-1.8-0.1-2.7c-0.4-1.1-1.1-2-2.2-2.5l-3.7-2c0,0,0,0,0,0l-16.2-8.6c-2.2-1.2-4.7-1.4-7-0.3l-9.8,4.7l-1.7,0.8l0,0
		c-1.2,0.6-1.7,2.3-1.1,3.7l5.6,11.3c0.6,1.5,2.2,2.2,3.4,1.6l0,0l3.5-1.7c1.5-0.7,3.3-0.6,4.8,0.1l14.9,8.7c1,0.6,2.1,0.8,3.2,0.3
		l28.2-14.8C253.8,425,254.5,422.7,253.6,420.7z"/>
	<path id="XMLID_162_" class="st1" d="M193.2,436l-8.5-17.2c-0.3-0.6-1-0.8-1.6-0.5l-8.4,4.1c-0.6,0.3-0.8,1-0.6,1.5l8.5,17.2
		c0.3,0.6,1,0.8,1.6,0.5l8.4-4.1C193.3,437.3,193.5,436.6,193.2,436z M183.2,426c-1.2,0-2.1-1-2.1-2.1c0-1.2,1-2.1,2.1-2.1
		c1.2,0,2.1,1,2.1,2.1C185.3,425.1,184.3,426,183.2,426z"/>
	<g id="XMLID_165_">
		<path id="XMLID_166_" class="st1" d="M230,390.7l-9.7-4.3v-12c0-1.2-1-2.2-2.2-2.2c-1.2,0-2.2,1-2.2,2.2v14.9l12.4,5.5
			c0.3,0.1,0.6,0.2,0.9,0.2c0.8,0,1.7-0.5,2-1.3C231.6,392.5,231.1,391.2,230,390.7z"/>
		<path id="XMLID_167_" class="st1" d="M220.6,353.1c-0.9-0.1-1.7-0.1-2.6-0.1c0,0-0.1,0-0.1,0c-0.1,0-0.1,0-0.2,0
			c-8.5,0.1-16.6,3.4-22.8,9.3c-6.5,6.1-10.4,14.7-10.8,23.7c0,0.1,0,0.2,0,0.3c0,0.1,0,0.1,0,0.2c0,0.3,0,0.5,0,0.8
			c0,6.9,2,13.6,5.9,19.2c0.7,1,2.1,1.3,3.1,0.6c1-0.7,1.3-2.1,0.6-3.1c-3.1-4.6-4.9-10-5.1-15.5h2.6c1.2,0,2.2-1,2.2-2.2
			c0-1.2-1-2.2-2.2-2.2h-2.5c0.7-7.1,4-13.6,9.3-18.6c4.9-4.6,11.1-7.4,17.8-8v2.5c0,1.2,1,2.2,2.2,2.2c1.2,0,2.2-1,2.2-2.2v-2.6
			c0.1,0,0.1,0,0.2,0c14.5,0.9,26.2,12.4,27.8,26.6h-3.7c-1.2,0-2.2,1-2.2,2.2c0,1.2,1,2.2,2.2,2.2h3.9c-0.3,8.5-4.2,16.3-10.8,21.8
			c-0.9,0.8-1.1,2.2-0.3,3.1c0.4,0.5,1.1,0.8,1.7,0.8c0.5,0,1-0.2,1.4-0.5c8.1-6.7,12.6-16.6,12.4-27.2
			C252.3,368.9,238.2,354.2,220.6,353.1z"/>
	</g>
</g>
<g id="XMLID_17_" class="st2">
	<path id="XMLID_13_" class="st3" d="M439,89.8c0-9.9,7-22,15.6-26.9L558.4,3.7c8.6-4.9,22.7-4.9,31.3,0l103.7,59.2
		c8.6,4.9,15.6,17,15.6,26.9v118c0,9.9-7,22-15.6,26.9l-103.7,59.2c-8.6,4.9-22.7,4.9-31.3,0l-103.7-59.2
		c-8.6-4.9-15.6-17-15.6-26.9V89.8z"/>
</g>
<path id="XMLID_9_" class="st0" d="M587.2,415.2l-17,15.6c-0.4,0.3-0.8,0.4-1.3,0.4c-0.4,0-0.8-0.1-1.3-0.5l-6.7-6.3
	c-0.5-0.5-0.5-1.4,0-1.9s1.4-0.5,1.9,0l6.2,5.8l16.9-15.5c-3.6-5.2-9.6-8.6-16.4-8.6c-11,0-19.9,9-19.9,19.9s9,19.9,19.9,19.9
	c11,0,19.9-9,19.9-19.9C589.2,420.8,588.6,417.9,587.2,415.2z"/>
</svg>
