<?xml version="1.0" encoding="utf-8"?>
<!-- Generator: Adobe Illustrator 19.0.0, SVG Export Plug-In . SVG Version: 6.00 Build 0)  -->
<svg version="1.1" id="图层_1" xmlns="http://www.w3.org/2000/svg" xmlns:xlink="http://www.w3.org/1999/xlink" x="0px" y="0px"
	 viewBox="0 0 26.6 29" style="enable-background:new 0 0 26.6 29;" xml:space="preserve">
<style type="text/css">
	.st0{fill:#F1CB9D;}
</style>
<g id="XMLID_14_">
	<g id="XMLID_31_">
		<path id="XMLID_22_" class="st0" d="M20.6,29c-2.4,0-8.9-0.7-14.9-7.7l-0.1,0l-0.1-0.1C-2,12.3,0.3,4.4,0.4,4.1
			c0.2-1,0.7-1.6,1.7-2.5C2.2,1.5,2.8,1,3.5,0.8c0.9-0.4,1.8-0.6,1.8-0.6c1-0.3,2.3,0,3,0.8l0.1,0.2l2.9,5.3
			c0.6,1.4,0.1,2.8-1.3,3.5c-0.2,0.1-0.6,0.3-0.9,0.5C8.6,10.6,8.3,11,8.3,11C8,11.2,8,12,8.7,13.4c0.6,1.3,1.7,2.7,2.1,3.2
			c0.4,0.4,1.7,1.8,2.9,2.6c1.6,1,2.3,1,2.4,0.9c0,0,0.4-0.3,0.8-0.7c0.2-0.3,0.5-0.7,0.6-0.8c0.9-1.3,2.3-1.6,3.6-0.8l5,3.9
			c0.7,0.8,0.8,2.1,0.3,3.1c0,0,0,0,0,0c0,0-0.4,0.9-0.9,1.6c-0.4,0.6-0.9,1.1-1,1.2c-1.1,0.9-1.8,1.3-2.9,1.3
			C21.5,29,21.2,29,20.6,29z M7.1,19.9L7.1,19.9c6.8,8,14.2,7.1,14.3,7.1c0.6,0,0.9-0.1,1.7-0.8l0,0c0,0,0.4-0.4,0.6-0.8
			c0.4-0.6,0.7-1.4,0.7-1.4c0.2-0.4,0.2-0.7,0.1-0.9l-4.7-3.6c-0.1,0-0.4-0.3-0.8,0.3c0,0-0.4,0.6-0.8,1.1c-0.5,0.5-0.9,0.9-1,0.9
			c-1,0.9-2.7,0.7-4.8-0.7C11.2,20,9.8,18.6,9.3,18l-0.1-0.1c-0.5-0.6-1.7-2.2-2.4-3.7c-1-2.3-1-3.9,0.1-4.8c0,0,0.5-0.4,1-0.8
			C8.5,8.3,9.1,8,9.2,8c0.6-0.3,0.4-0.6,0.3-0.7L6.7,2.2C6.5,2,6.1,2,5.8,2.1c-0.1,0-0.9,0.2-1.6,0.5C3.8,2.8,3.3,3.1,3.3,3.1
			c-0.7,0.6-0.9,0.9-1,1.5C2.2,5,0.3,11.8,7,19.8l0,0L7.1,19.9z"/>
	</g>
	<g id="XMLID_30_">
		<path id="XMLID_21_" class="st0" d="M22.6,15.4c-0.2,0-0.4-0.1-0.6-0.2c-0.5-0.3-0.6-0.9-0.3-1.4c0.8-1.1,1.2-2.4,1.2-3.8
			c0-3.7-3-6.7-6.7-6.7c-0.2,0-0.3,0-0.5,0c-0.6,0-1-0.4-1.1-0.9c0-0.6,0.4-1,0.9-1.1c0.2,0,0.4,0,0.6,0c4.8,0,8.7,3.9,8.7,8.7
			c0,1.8-0.5,3.5-1.6,5C23.2,15.3,22.9,15.4,22.6,15.4z"/>
	</g>
	<g id="XMLID_29_">
		<path id="XMLID_20_" class="st0" d="M18.9,13.5c-0.2,0-0.5-0.1-0.7-0.3c-0.4-0.4-0.4-1-0.1-1.4c0.4-0.5,0.7-1.1,0.7-1.8
			c0-1.5-1.2-2.7-2.7-2.7c-0.2,0-0.4,0-0.6,0.1c-0.5,0.1-1.1-0.2-1.2-0.8c-0.1-0.5,0.2-1.1,0.8-1.2c0.3-0.1,0.7-0.1,1-0.1
			c2.6,0,4.7,2.1,4.7,4.7c0,1.2-0.4,2.3-1.2,3.1C19.5,13.4,19.2,13.5,18.9,13.5z"/>
	</g>
</g>
</svg>
