<?xml version="1.0" encoding="UTF-8" standalone="no"?>
<svg
   xmlns="http://www.w3.org/2000/svg"
   version="1.1"
   x="0"
   y="0"
   viewBox="0 0 26.747998 26.780001"
   width="26.747999"
   height="26.780001">
    <style>
	.st0{fill:#de6339;}
    </style>
    <g transform="translate(-64.171328,-97.72)">
        <path class="st0" d="m 76.1,107.1 c 0.1,-0.1 0.1,-0.2 0,-0.3 l -4.6,-4.5 c -0.1,-0.1 -0.2,-0.1 -0.3,0 l -1.8,1.8 c -1.8,2.3 0.6,6.7 4.7,10.7 4.3,4.2 8.9,6.6 10.9,4.6 l 1.8,-1.8 c 0.1,-0.1 0.1,-0.2 0,-0.3 l -4.6,-4.5 c -0.1,-0.1 -0.2,-0.1 -0.3,0 l -1.8,1.8 1,1 c 0,0 -2.4,-0.6 -4.8,-2.9 -2,-1.9 -2.8,-3.8 -2.8,-4.6 l 0.8,0.8 1.8,-1.8 z" />
        <path class="st0" d="m 90.851213,109.7 c -0.9,-7.4 -7.5,-12.7 -14.8,-11.9 -7.3,0.8 -12.6,7.5 -11.8,14.8 0.8,6.8 6.6,11.9 13.3,11.9 0.5,0 1,0 1.5,-0.1 3,-0.3 5.7,-1.6 7.9,-3.8 0.2,-0.2 0.2,-0.4 0,-0.6 -0.2,-0.2 -0.4,-0.2 -0.6,0 -2,2 -4.6,3.2 -7.4,3.5 -6.9,0.8 -13.2,-4.2 -13.9,-11.1 -0.8,-6.9 4.2,-13.2 11.1,-13.9 6.9,-0.8 13.2,4.2 13.9,11.1 0.3,2.9 -0.3,5.7 -1.9,8.1 -0.1,0.2 -0.1,0.4 0.1,0.6 0.2,0.1 0.4,0.1 0.6,-0.1 1.6,-2.5 2.3,-5.5 2,-8.5 z" />
    </g>
</svg>